<svg width="22" height="22" viewBox="0 0 22 22" xmlns="http://www.w3.org/2000/svg">
<path d="M22 13.0048V8.99525C20.031 8.29308 19.5012 8.26008 19.2253 7.59367C18.9475 6.92542 19.3013 6.52208 20.196 4.63925L17.3608 1.804C15.5036 2.68675 15.0801 3.05433 14.4054 2.77475C13.739 2.49792 13.7014 1.95983 13.0057 0H8.99525C8.29492 1.96533 8.26192 2.49792 7.59367 2.77475C6.90433 3.06167 6.49092 2.68308 4.63925 1.804L1.804 4.63925C2.69958 6.523 3.0525 6.9245 2.77475 7.59458C2.49792 8.261 1.96717 8.29492 0 8.99525V13.0057C1.96075 13.7023 2.49792 13.739 2.77475 14.4063C3.05342 15.0792 2.7005 15.4761 1.804 17.3608L4.63925 20.196C6.47167 19.3252 6.90342 18.9374 7.59367 19.2253C8.261 19.5021 8.294 20.0319 8.99525 22H13.0048C13.6996 20.0466 13.7372 19.5039 14.4137 19.2216C15.0966 18.9393 15.5008 19.3123 17.3608 20.1951L20.196 17.3598C19.3022 15.4807 18.9475 15.0755 19.2253 14.4054C19.5002 13.7399 20.0319 13.706 22 13.0048ZM17.5312 13.7051C17.0023 14.9829 17.4689 15.9583 17.9786 16.9849L16.9849 17.9786C15.983 17.4808 15.004 16.9923 13.7097 17.5294C12.43 18.062 12.0688 19.0813 11.704 20.1667H10.2978C9.933 19.0804 9.57275 18.0611 8.29675 17.5312C6.996 16.9923 5.99867 17.49 5.016 17.9786L4.02325 16.9849C4.53383 15.9601 5.00042 14.9866 4.46967 13.7033C3.93892 12.4282 2.91958 12.0679 1.83333 11.7031V10.2978C2.91958 9.933 3.93892 9.57275 4.46875 8.29583C4.99858 7.018 4.53108 6.04175 4.02142 5.01508L5.01508 4.02142C6.00692 4.51458 6.99692 5.00867 8.29675 4.46875C9.57275 3.93983 9.933 2.91958 10.2978 1.83333H11.704C12.0688 2.91958 12.43 3.93892 13.706 4.46875C15.0068 5.00775 16.0032 4.51 16.9867 4.02142L17.9804 5.01508C17.4708 6.04267 17.0042 7.01983 17.5331 8.29675C18.062 9.57183 19.0813 9.93208 20.1685 10.2978V11.704C19.0795 12.0688 18.0583 12.4291 17.5312 13.7051ZM11 8.25C12.5162 8.25 13.75 9.48383 13.75 11C13.75 12.5162 12.5162 13.75 11 13.75C9.48383 13.75 8.25 12.5162 8.25 11C8.25 9.48383 9.48383 8.25 11 8.25ZM11 6.41667C8.46817 6.41667 6.41667 8.46817 6.41667 11C6.41667 13.5318 8.46817 15.5833 11 15.5833C13.5318 15.5833 15.5833 13.5318 15.5833 11C15.5833 8.46817 13.5318 6.41667 11 6.41667Z"/>
</svg>
